<svg version="1.1" id="Capa_1" xmlns="http://www.w3.org/2000/svg" xmlns:xlink="http://www.w3.org/1999/xlink" x="0px" y="0px" width="20px" height="20px" viewBox="0 0 300 300" xml:space="preserve"><g id="XMLID_3_"><path id="XMLID_239_" d="M105.875,150c0,1.025-0.231,1.985-0.293,3.011l107.486,53.744c9.213-7.797,20.98-12.663,33.984-12.663 c29.244,0,52.947,23.698,52.947,52.946C300,276.302,276.297,300,247.053,300c-29.264,0-52.929-23.698-52.929-52.962 c0-1.059,0.228-2.002,0.293-3.032L86.928,190.283c-9.24,7.764-20.978,12.63-33.982,12.63C23.699,202.913,0,179.231,0,150 c0-29.262,23.699-52.962,52.945-52.962c13.005,0,24.754,4.883,33.982,12.646l107.489-53.726c-0.065-1.025-0.293-1.987-0.293-3.046 C194.124,23.7,217.789,0,247.053,0C276.297,0,300,23.7,300,52.913c0,29.267-23.703,52.963-52.947,52.963 c-13.037,0-24.787-4.886-33.984-12.68l-107.486,53.763C105.644,147.984,105.875,148.942,105.875,150L105.875,150z M105.875,150" fill="#ff55a5" /></g></svg>